<svg width="27" height="22" viewBox="0 0 27 22" fill="none" xmlns="http://www.w3.org/2000/svg">
<path d="M25.1592 6.39951V6.28482C25.1592 5.24304 24.7321 4.24394 23.9721 3.50729C23.212 2.77065 22.1811 2.35681 21.1062 2.35681H13.2725L10.6786 0.471361C10.2577 0.165396 9.7457 0 9.21953 0H4.90065C3.82573 0 2.79484 0.413843 2.03475 1.15049C1.27467 1.88713 0.847656 2.88624 0.847656 3.92801L0.849277 18.0657C0.849299 19.0261 1.21237 19.9532 1.86986 20.6718C2.52735 21.3904 3.43369 21.8506 4.41754 21.9654C4.55683 21.9881 4.69781 21.9996 4.83905 22H22.2151C22.7794 21.9998 23.3261 21.8094 23.7615 21.4614C24.1969 21.1134 24.4939 20.6295 24.6015 20.0926L26.8031 9.09413C26.9165 8.52785 26.8118 7.94092 26.5089 7.44438C26.206 6.94783 25.7258 6.5761 25.1592 6.39951ZM4.90065 1.5712H9.21953C9.39492 1.5712 9.56558 1.62634 9.70589 1.72832L12.517 3.77089C12.6574 3.87288 12.828 3.92801 13.0034 3.92801H21.1062C21.7511 3.92801 22.3696 4.17632 22.8257 4.6183C23.2817 5.06029 23.538 5.65975 23.538 6.28482V6.28796H7.04712C6.48276 6.28813 5.93604 6.47854 5.50065 6.82654C5.06526 7.17455 4.76832 7.65848 4.66072 8.1954L2.5564 18.6848C2.49904 18.4831 2.4696 18.2749 2.46886 18.0657V3.92801C2.46886 3.30295 2.72506 2.70348 3.18111 2.2615C3.63716 1.81951 4.2557 1.5712 4.90065 1.5712ZM6.25111 8.4955C6.28689 8.31634 6.3859 8.15484 6.53115 8.03873C6.6764 7.92261 6.85883 7.85912 7.04712 7.85916H24.415C24.5345 7.85914 24.6526 7.88473 24.7607 7.9341C24.8688 7.98347 24.9643 8.0554 25.0404 8.14475C25.1165 8.23409 25.1712 8.33862 25.2007 8.45087C25.2302 8.56312 25.2337 8.68031 25.211 8.79403L23.0111 19.7925C22.9753 19.9716 22.8763 20.1331 22.731 20.2492C22.5858 20.3653 22.4033 20.4288 22.2151 20.4288H4.84067C4.72129 20.4286 4.60343 20.4028 4.49551 20.3534C4.38759 20.3039 4.29228 20.2319 4.21639 20.1426C4.1405 20.0533 4.0859 19.9488 4.05649 19.8367C4.02709 19.7246 4.0236 19.6075 4.04628 19.4939L6.25111 8.4955Z" fill="white"/>
</svg>
