<svg width="10" height="8" viewBox="0 0 10 8" fill="none" xmlns="http://www.w3.org/2000/svg">
<path d="M0.9 2.07129V2.07128C0.9 1.75531 1.04624 1.45599 1.3001 1.23791C1.55348 1.02025 1.8943 0.9 2.24708 0.9H3.57596C3.75604 0.9 3.93256 0.950099 4.07907 1.04449L4.85246 1.54277H7.23339C7.58616 1.54277 7.92698 1.66301 8.18036 1.88068C8.42298 2.0891 8.56731 2.37173 8.57961 2.67219C8.74335 2.73224 8.88388 2.83664 8.97814 2.97359C9.08649 3.131 9.12513 3.31945 9.08382 3.50226M0.9 2.07129L7.23339 1.64277C7.56413 1.64277 7.88133 1.75563 8.1152 1.95653C8.34907 2.15744 8.48046 2.42992 8.48046 2.71404V2.74532C8.65481 2.79348 8.80256 2.89486 8.89577 3.03028C8.98898 3.16571 9.02118 3.32578 8.98628 3.48022L8.30886 6.47979C8.27575 6.62622 8.18439 6.7582 8.05042 6.85311C7.91646 6.94802 7.74823 6.99995 7.57459 7H2.22812C2.18466 6.9999 2.14129 6.99674 2.09842 6.99057M0.9 2.07129L0.900499 5.92701L0.9 2.07129ZM9.08382 3.50226L8.98694 3.48037L9.08382 3.50225L9.08382 3.50226ZM9.08382 3.50226L8.40641 6.50182L8.4064 6.50184C8.36732 6.67468 8.26029 6.82698 8.10823 6.93471C7.95637 7.0423 7.7677 7.09995 7.57461 7.1H7.57459H2.22812H2.22788C2.18042 7.09989 2.13304 7.09649 2.08617 7.08984M2.08617 7.08984C2.08682 7.08991 2.08748 7.08997 2.08813 7.09004L2.09842 6.99057M2.08617 7.08984C2.0855 7.08974 2.08484 7.08965 2.08418 7.08955L2.09842 6.99057M2.08617 7.08984C1.76381 7.05606 1.46424 6.92202 1.24495 6.70959C1.02483 6.49636 0.900509 6.2182 0.900499 5.92702L1.0005 5.92701C1.00051 6.18894 1.11222 6.44179 1.31452 6.63776C1.51683 6.83373 1.7957 6.95925 2.09842 6.99057M3.67146 1.55543L3.67145 1.55542C3.64527 1.53856 3.61174 1.52851 3.57596 1.52851H2.24708C2.07066 1.52851 1.90396 1.58885 1.78315 1.69263C1.66281 1.796 1.59883 1.93265 1.59883 2.07128V5.32003L2.07571 3.21306L2.07572 3.21303L2.17325 3.23511L3.67146 1.55543ZM3.67146 1.55543L4.53642 2.11249M3.67146 1.55543L4.53642 2.11249M4.53642 2.11249C4.53643 2.11249 4.53643 2.11249 4.53644 2.1125C4.5966 2.15125 4.66809 2.17128 4.74023 2.17128H7.23339C7.40981 2.17128 7.5765 2.23161 7.69731 2.33539C7.78874 2.41393 7.84763 2.51167 7.87066 2.6149L4.53642 2.11249ZM2.76014 3.33901L2.76016 3.33893C2.76521 3.31651 2.78 3.29281 2.80658 3.27397C2.83336 3.255 2.86903 3.2434 2.90751 3.24341H2.90753H8.2515H8.25152C8.27575 3.2434 8.2993 3.24802 8.32034 3.25654C8.34138 3.26506 8.35876 3.27698 8.37181 3.29057C8.38481 3.3041 8.39311 3.31881 8.39738 3.33321C8.40161 3.3475 8.40208 3.3621 8.39888 3.37636C8.39887 3.37637 8.39887 3.37638 8.39887 3.37639L7.72196 6.37593L7.72196 6.37597C7.7169 6.39839 7.70211 6.42209 7.67553 6.44092C7.64875 6.4599 7.61309 6.4715 7.5746 6.47149H7.57459H2.22877C2.20457 6.47145 2.18106 6.4668 2.16006 6.45827C2.13906 6.44974 2.12174 6.43781 2.10872 6.42424C2.09576 6.41071 2.08748 6.39603 2.08323 6.38164C2.079 6.36735 2.07854 6.35276 2.08175 6.3385L2.76014 3.33901Z" fill="#042A4B" stroke="#042A4B" stroke-width="0.2"/>
</svg>
