<svg width="120" height="51" viewBox="0 0 120 51" fill="none" xmlns="http://www.w3.org/2000/svg">
<path d="M120 23.6675H0V50.6689H120V23.6675Z" fill="#83D0F5"/>
<path d="M120 0.666504H0V25.6677H120V0.666504Z" fill="#009FE3"/>
<path d="M19.0477 11.7188V11.3977C19.0477 11.3042 19.0105 11.2145 18.9444 11.1483C18.8782 11.0821 18.7885 11.045 18.6949 11.045H14.25C14.0998 11.044 13.9553 11.1017 13.8472 11.2059C13.7391 11.31 13.676 11.4523 13.6714 11.6024V16.6259C13.667 16.7908 13.6963 16.9548 13.7573 17.1081C13.8183 17.2613 13.9098 17.4006 14.0262 17.5174C14.1427 17.6342 14.2817 17.7261 14.4348 17.7875C14.5878 17.8489 14.7518 17.8786 14.9167 17.8747H20.3741C20.5392 17.8786 20.7033 17.8489 20.8566 17.7875C21.0098 17.7261 21.149 17.6343 21.2658 17.5175C21.3825 17.4008 21.4744 17.2616 21.5358 17.1083C21.5972 16.9551 21.6268 16.7909 21.623 16.6259V9.70443C21.6273 9.5397 21.5981 9.37581 21.5371 9.22275C21.476 9.06969 21.3845 8.93066 21.2679 8.81414C21.1514 8.69762 21.0124 8.60606 20.8593 8.54502C20.7063 8.48398 20.5424 8.45476 20.3777 8.45913H13.0999L11.9922 7.16797H20.3706C20.7038 7.16751 21.0339 7.2328 21.3418 7.3601C21.6498 7.48741 21.9296 7.67422 22.1652 7.90985C22.4008 8.14547 22.5876 8.42527 22.7149 8.73322C22.8422 9.04116 22.9075 9.3712 22.9071 9.70443V16.6259C22.9071 17.2989 22.6399 17.9444 22.1644 18.4207C21.6888 18.8969 21.0436 19.1649 20.3706 19.1659H14.9238C14.2513 19.164 13.6071 18.8956 13.1323 18.4194C12.6575 17.9433 12.3908 17.2983 12.3908 16.6259V11.6412C12.3904 11.3926 12.4389 11.1463 12.5337 10.9165C12.6286 10.6867 12.7678 10.4778 12.9434 10.3018C13.119 10.1259 13.3276 9.98628 13.5573 9.89103C13.7869 9.79579 14.0331 9.74676 14.2817 9.74676H19.4816C19.5936 9.74676 19.7044 9.76887 19.8078 9.81181C19.9112 9.85476 20.005 9.9177 20.084 9.99702C20.163 10.0763 20.2256 10.1705 20.2681 10.274C20.3106 10.3776 20.3323 10.4885 20.3318 10.6005V12.3397C20.3315 12.5221 20.2728 12.6997 20.1643 12.8464C20.0557 12.993 19.903 13.101 19.7286 13.1546C19.9033 13.2091 20.0563 13.3178 20.1654 13.4649C20.2744 13.612 20.3339 13.7899 20.3353 13.973V15.7369C20.3353 15.9633 20.2454 16.1805 20.0853 16.3406C19.9252 16.5007 19.708 16.5906 19.4816 16.5906H15.8163C15.7043 16.5906 15.5935 16.5685 15.4901 16.5256C15.3867 16.4826 15.2928 16.4197 15.2138 16.3403C15.1349 16.261 15.0723 16.1669 15.0298 16.0633C14.9873 15.9598 14.9656 15.8488 14.9661 15.7369V11.2813H16.2572V14.9326C16.2572 15.0261 16.2944 15.1159 16.3606 15.182C16.4267 15.2482 16.5165 15.2853 16.61 15.2853H18.6949C18.7885 15.2853 18.8782 15.2482 18.9444 15.182C19.0105 15.1159 19.0477 15.0261 19.0477 14.9326V14.1988C19.0477 14.1052 19.0105 14.0155 18.9444 13.9493C18.8782 13.8832 18.7885 13.846 18.6949 13.846H16.5077V12.4843H18.6949C18.7885 12.4843 18.8782 12.4471 18.9444 12.381C19.0105 12.3148 19.0477 12.2251 19.0477 12.1315V11.7188Z" fill="white"/>
<path d="M31.2805 7.17822H36.9249C39.7753 7.17822 40.5056 9.01266 40.5056 10.2509C40.5056 11.9689 39.5672 12.4557 39.0945 12.7203C40.5056 13.2707 40.8972 14.4383 40.8972 15.6237C40.8957 16.5462 40.5351 17.4319 39.8917 18.0931C39.225 18.7598 38.5935 19.1761 36.2123 19.1761H31.2734L31.2805 7.17822ZM33.6123 17.0983H36.5968C37.7821 17.0983 38.463 16.5621 38.463 15.3344C38.463 14.2761 37.5846 13.8845 36.6991 13.8845H33.6123V17.0983ZM33.6123 11.8701H36.4663C37.4223 11.8701 38.1843 11.4856 38.1843 10.5366C38.1843 9.58768 37.5035 9.24902 36.4204 9.24902H33.6123V11.8701Z" fill="white"/>
<path d="M51.9334 9.29873H45.5094V11.8211H51.1855V13.9377H45.5094V17.0457H51.9405V19.1623H43.1211V7.16797H51.9405L51.9334 9.29873Z" fill="white"/>
<path d="M85.7256 9.29873H79.3051V11.8211H84.9742V13.9377H79.3051V17.0457H85.7256V19.1623H76.9062V7.16797H85.7256V9.29873Z" fill="white"/>
<path d="M56.567 19.156H54.1328V7.16162H56.567V12.044L61.0084 7.16868H64.1516L59.4033 12.0758L64.2328 19.156H61.2977L57.6994 13.8961L56.567 15.0991V19.156Z" fill="white"/>
<path d="M66.9869 19.156H64.4258L68.5779 7.16162H71.379L75.4818 19.156H72.8395L72.0916 16.6866H67.7948L66.9869 19.156ZM68.5956 14.6122H71.566L70.1196 9.87446H70.0878L68.5956 14.6122Z" fill="white"/>
<path d="M87.9297 7.17822H93.814C96.9113 7.17822 97.4758 9.53124 97.4758 10.5684C97.4758 11.8842 96.8302 13.0378 95.6766 13.4223C96.6327 13.8598 97.1548 14.2267 97.1548 16.4633C97.1548 18.2272 97.1865 18.7069 97.6698 19.1655H94.9817C94.7747 18.3763 94.6867 17.5607 94.7206 16.7455C94.7206 15.1086 94.6254 14.4736 92.8227 14.4736H90.3109V19.1655H87.9297V7.17822ZM93.1649 12.4699C94.4278 12.4699 95.0452 12.0183 95.0452 10.833C95.0452 10.198 94.77 9.26313 93.3413 9.26313H90.3109V12.4699H93.1649Z" fill="white"/>
<path d="M104.485 19.1662H102.051V9.28853H98.5234V7.17188H107.988V9.28853H104.461L104.485 19.1662Z" fill="white"/>
<path d="M31.2812 32.6665H32.5583V35.6192H32.5795C32.7737 35.3416 33.0318 35.1147 33.332 34.9575C33.6322 34.8004 33.9657 34.7176 34.3045 34.7161C36.1284 34.7161 37.0103 36.1025 37.0103 37.7923C37.0103 39.3445 36.2272 40.8121 34.5162 40.8121C33.7295 40.8121 32.8934 40.6216 32.5124 39.8596H32.4913V40.6569H31.2812V32.6665ZM34.1352 35.7215C33.0769 35.7215 32.5124 36.5365 32.5124 37.7676C32.5124 38.9318 33.1051 39.8032 34.1352 39.8032C35.2994 39.8032 35.7333 38.7766 35.7333 37.7676C35.7333 36.7587 35.1865 35.7215 34.1352 35.7215Z" fill="white"/>
<path d="M39.0825 38.0924C39.0825 38.999 39.5764 39.8033 40.6347 39.8033C40.9452 39.832 41.256 39.7515 41.5135 39.5757C41.7711 39.3999 41.9593 39.1398 42.0458 38.8403H43.2558C42.9736 40.1067 41.9012 40.8123 40.6347 40.8123C38.825 40.8123 37.8125 39.5458 37.8125 37.7678C37.8125 36.1239 38.8708 34.7163 40.6135 34.7163C42.4339 34.7163 43.5522 36.3602 43.3405 38.0924H39.0825ZM42.0599 37.2528C42.0599 36.8579 41.9031 36.4793 41.6239 36.2001C41.3447 35.9209 40.966 35.7641 40.5712 35.7641C40.1764 35.7641 39.7977 35.9209 39.5185 36.2001C39.2393 36.4793 39.0825 36.8579 39.0825 37.2528H42.0599Z" fill="white"/>
<path d="M43.7188 34.8864H44.6854V33.1226H45.9589V34.8864H47.1125V35.8389H45.9589V38.9257C45.9589 39.4514 46.0047 39.7195 46.5762 39.7195C46.7562 39.7271 46.9364 39.7116 47.1125 39.6736V40.6578C46.8338 40.6825 46.5656 40.7249 46.2834 40.7249C44.9535 40.7249 44.7065 40.2133 44.6854 39.2503V35.8248H43.7188V34.8864Z" fill="white"/>
<path d="M47.4453 34.8864H48.4084V33.1226H49.6819V34.8864H50.8355V35.8389H49.6819V38.9257C49.6819 39.4514 49.7278 39.7195 50.2993 39.7195C50.4792 39.7271 50.6594 39.7116 50.8355 39.6736V40.6578C50.5568 40.6825 50.2887 40.7249 50.0065 40.7249C48.6765 40.7249 48.4296 40.2133 48.4084 39.2503V35.8248H47.4453V34.8864Z" fill="white"/>
<path d="M52.7508 38.0924C52.7508 38.999 53.2447 39.8033 54.3066 39.8033C54.6172 39.8327 54.9283 39.7525 55.186 39.5766C55.4437 39.4007 55.6318 39.1402 55.7177 38.8403H56.9242C56.6455 40.1067 55.573 40.8123 54.3066 40.8123C52.4933 40.8123 51.4844 39.5458 51.4844 37.7678C51.4844 36.1239 52.5427 34.7163 54.2819 34.7163C56.1057 34.7163 57.224 36.3602 57.0088 38.0924H52.7508ZM55.7283 37.2528C55.7283 36.8579 55.5714 36.4793 55.2922 36.2001C55.013 35.9209 54.6344 35.7641 54.2396 35.7641C53.8447 35.7641 53.4661 35.9209 53.1869 36.2001C52.9077 36.4793 52.7508 36.8579 52.7508 37.2528H55.7283Z" fill="white"/>
<path d="M57.9766 34.8858H59.176V36.0041H59.1972C59.3172 35.646 59.5429 35.3327 59.8446 35.1053C60.1462 34.878 60.5096 34.7474 60.887 34.7306C61.0486 34.7291 61.2102 34.7397 61.3703 34.7624V35.9935C61.188 35.9645 61.0043 35.9456 60.8199 35.9371C59.9486 35.9371 59.2536 36.6427 59.2536 37.9162V40.6714H57.9766V34.8858Z" fill="white"/>
<path d="M64.4446 34.8864H65.4076V33.1226H66.6776V34.8864H67.8312V35.8389H66.6776V38.9257C66.6776 39.4514 66.7235 39.7195 67.2915 39.7195C67.4726 39.7269 67.6539 39.7114 67.8312 39.6736V40.6578C67.549 40.6825 67.2809 40.7249 67.0022 40.7249C65.6687 40.7249 65.4217 40.2133 65.4006 39.2503V35.8248H64.4375L64.4446 34.8864Z" fill="white"/>
<path d="M68.4844 37.7572C68.4844 35.9934 69.5427 34.7163 71.4054 34.7163C73.268 34.7163 74.3263 35.9898 74.3263 37.7572C74.3263 39.5246 73.268 40.8123 71.4054 40.8123C69.5427 40.8123 68.4844 39.5352 68.4844 37.7572ZM73.0528 37.7572C73.0528 36.7624 72.5483 35.7217 71.4054 35.7217C70.2624 35.7217 69.7614 36.7624 69.7614 37.7572C69.7614 38.7521 70.2659 39.8033 71.4054 39.8033C72.5448 39.8033 73.0528 38.7662 73.0528 37.7572Z" fill="white"/>
<path d="M80.7341 40.3537C80.7341 42.0858 79.7181 42.9501 77.9119 42.9501C76.7478 42.9501 75.4425 42.5021 75.3261 41.1474H76.5996C76.7584 41.8742 77.3404 41.9976 77.9895 41.9976C79.0196 41.9976 79.4782 41.472 79.4782 40.523V39.6376H79.4571C79.2848 39.9467 79.0331 40.2043 78.728 40.3835C78.4228 40.5627 78.0753 40.6572 77.7214 40.6571C75.8835 40.6571 75.125 39.2672 75.125 37.6126C75.125 36.0569 76.0987 34.7164 77.7426 34.7164C78.0891 34.695 78.4344 34.7729 78.7381 34.941C79.0418 35.1091 79.2912 35.3604 79.4571 35.6653H79.4782V34.8857H80.7518L80.7341 40.3537ZM79.4606 37.6338C79.4606 36.639 79.0126 35.7218 77.9049 35.7218C76.7972 35.7218 76.3809 36.7801 76.3809 37.7361C76.3809 38.6921 76.8395 39.6482 77.9049 39.6482C79.0232 39.6482 79.4606 38.618 79.4606 37.6338Z" fill="white"/>
<path d="M83.0165 38.0924C83.0165 38.999 83.5068 39.8033 84.5722 39.8033C84.8827 39.832 85.1935 39.7515 85.451 39.5757C85.7086 39.3999 85.8968 39.1398 85.9833 38.8403H87.1898C86.9076 40.1067 85.8351 40.8123 84.5722 40.8123C82.7589 40.8123 81.75 39.5458 81.75 37.7678C81.75 36.1239 82.826 34.7163 84.5475 34.7163C86.3714 34.7163 87.4897 36.3602 87.278 38.0924H83.0165ZM85.9904 37.2528C86.0002 37.0514 85.969 36.8501 85.8987 36.6612C85.8284 36.4723 85.7204 36.2996 85.5814 36.1536C85.4424 36.0076 85.2751 35.8914 85.0898 35.812C84.9045 35.7326 84.705 35.6916 84.5034 35.6916C84.3018 35.6916 84.1023 35.7326 83.917 35.812C83.7317 35.8914 83.5645 36.0076 83.4254 36.1536C83.2864 36.2996 83.1784 36.4723 83.1081 36.6612C83.0378 36.8501 83.0067 37.0514 83.0165 37.2528H85.9904Z" fill="white"/>
<path d="M87.6562 34.8864H88.6193V33.1226H89.8929V34.8864H91.0464V35.8389H89.8929V38.9257C89.8929 39.4514 89.9387 39.7195 90.5102 39.7195C90.6902 39.7271 90.8704 39.7116 91.0464 39.6736V40.6578C90.7677 40.6825 90.4996 40.7249 90.2174 40.7249C88.8874 40.7249 88.6405 40.2133 88.6193 39.2503V35.8248H87.6562V34.8864Z" fill="white"/>
<path d="M91.9637 32.6665H93.2408V35.6333H93.2619C93.4492 35.3454 93.707 35.11 94.0107 34.9494C94.3144 34.7889 94.6541 34.7086 94.9976 34.7161C96.2499 34.7161 97.0437 35.3829 97.0437 36.6846V40.6569H95.7666V37.0198C95.7455 36.1131 95.3892 35.7215 94.6413 35.7215C94.4464 35.721 94.2535 35.7607 94.0748 35.8384C93.896 35.916 93.7353 36.0299 93.6027 36.1727C93.4702 36.3156 93.3686 36.4843 93.3045 36.6684C93.2404 36.8524 93.2151 37.0477 93.2302 37.242V40.6569H91.9531L91.9637 32.6665Z" fill="white"/>
<path d="M99.3879 38.0924C99.3879 38.999 99.8783 39.8033 100.944 39.8033C101.254 39.8334 101.566 39.7534 101.824 39.5774C102.082 39.4015 102.27 39.1406 102.355 38.8403H103.565C103.283 40.1067 102.21 40.8123 100.947 40.8123C99.1339 40.8123 98.125 39.5458 98.125 37.7678C98.125 36.1239 99.1833 34.7163 100.923 34.7163C102.746 34.7163 103.865 36.3602 103.653 38.0924H99.3879ZM102.362 37.2528C102.316 36.4484 101.773 35.7217 100.908 35.7217C100.707 35.7203 100.508 35.759 100.322 35.8356C100.137 35.9121 99.9679 36.025 99.8263 36.1676C99.6847 36.3102 99.573 36.4797 99.4977 36.666C99.4224 36.8523 99.3851 37.0518 99.3879 37.2528H102.362Z" fill="white"/>
<path d="M104.609 34.8858H105.805V36.0041H105.834C105.953 35.6455 106.178 35.3316 106.48 35.1041C106.782 34.8767 107.146 34.7464 107.523 34.7306C107.684 34.7291 107.844 34.7397 108.003 34.7624V35.9936C107.821 35.9643 107.637 35.9454 107.453 35.9371C106.581 35.9371 105.89 36.6427 105.89 37.9162V40.6714H104.613L104.609 34.8858Z" fill="white"/>
</svg>
