<svg width="24" height="18" viewBox="0 0 24 18" fill="none" xmlns="http://www.w3.org/2000/svg">
<path d="M23.1429 0H0.857143C0.383036 0 0 0.365625 0 0.818182V17.1818C0 17.6344 0.383036 18 0.857143 18H23.1429C23.617 18 24 17.6344 24 17.1818V0.818182C24 0.365625 23.617 0 23.1429 0ZM22.0714 2.83295V16.1591H1.92857V2.83295L1.18929 2.28324L2.24196 0.992046L3.38839 1.84347H20.6143L21.7607 0.992046L22.8134 2.28324L22.0714 2.83295ZM20.6143 1.84091L12 8.23295L3.38571 1.84091L2.23929 0.989489L1.18661 2.28068L1.92589 2.8304L11.0759 9.62131C11.339 9.81644 11.6628 9.92237 11.996 9.92237C12.3292 9.92237 12.6529 9.81644 12.9161 9.62131L22.0714 2.83295L22.8107 2.28324L21.758 0.992046L20.6143 1.84091Z" fill="white"/>
</svg>
