<svg width="24" height="24" viewBox="0 0 24 24" fill="none" xmlns="http://www.w3.org/2000/svg">
<path fill-rule="evenodd" clip-rule="evenodd" d="M2.5 10.1538C2.5 5.92674 5.92674 2.5 10.1538 2.5C14.3809 2.5 17.8077 5.92674 17.8077 10.1538C17.8077 14.3809 14.3809 17.8077 10.1538 17.8077C5.92674 17.8077 2.5 14.3809 2.5 10.1538ZM10.1538 1C5.09832 1 1 5.09832 1 10.1538C1 15.2094 5.09832 19.3077 10.1538 19.3077C12.428 19.3077 14.5084 18.4784 16.1092 17.1058C16.1452 17.1829 16.195 17.2552 16.2587 17.3189L21.5664 22.6266C21.8593 22.9195 22.3342 22.9195 22.6271 22.6266C22.92 22.3337 22.92 21.8588 22.6271 21.5659L17.3194 16.2582C17.2557 16.1945 17.1834 16.1447 17.1062 16.1087C18.4786 14.5079 19.3077 12.4277 19.3077 10.1538C19.3077 5.09832 15.2094 1 10.1538 1Z" fill="#042A4B"/>
<path d="M16.1092 17.1058L16.3358 17.0001C16.3027 16.9292 16.2384 16.8779 16.162 16.8614C16.0856 16.8449 16.0058 16.8651 15.9465 16.916L16.1092 17.1058ZM16.2587 17.3189L16.082 17.4957L16.2587 17.3189ZM21.5664 22.6266L21.7432 22.4498L21.5664 22.6266ZM22.6271 22.6266L22.4503 22.4498L22.6271 22.6266ZM22.6271 21.5659L22.4503 21.7427L22.6271 21.5659ZM17.3194 16.2582L17.4962 16.0815L17.3194 16.2582ZM17.1062 16.1087L16.9164 15.946C16.8655 16.0054 16.8453 16.0851 16.8619 16.1615C16.8784 16.2379 16.9297 16.3022 17.0005 16.3353L17.1062 16.1087ZM10.1538 2.25C5.78867 2.25 2.25 5.78867 2.25 10.1538H2.75C2.75 6.06481 6.06481 2.75 10.1538 2.75V2.25ZM18.0577 10.1538C18.0577 5.78867 14.519 2.25 10.1538 2.25V2.75C14.2429 2.75 17.5577 6.06481 17.5577 10.1538H18.0577ZM10.1538 18.0577C14.519 18.0577 18.0577 14.519 18.0577 10.1538H17.5577C17.5577 14.2429 14.2429 17.5577 10.1538 17.5577V18.0577ZM2.25 10.1538C2.25 14.519 5.78867 18.0577 10.1538 18.0577V17.5577C6.06481 17.5577 2.75 14.2429 2.75 10.1538H2.25ZM1.25 10.1538C1.25 5.23639 5.23639 1.25 10.1538 1.25V0.75C4.96024 0.75 0.75 4.96024 0.75 10.1538H1.25ZM10.1538 19.0577C5.23639 19.0577 1.25 15.0713 1.25 10.1538H0.75C0.75 15.3474 4.96024 19.5577 10.1538 19.5577V19.0577ZM15.9465 16.916C14.3893 18.2512 12.366 19.0577 10.1538 19.0577V19.5577C12.4899 19.5577 14.6275 18.7056 16.272 17.2956L15.9465 16.916ZM16.4355 17.1421C16.3927 17.0994 16.3596 17.0512 16.3358 17.0001L15.8827 17.2115C15.9308 17.3146 15.9974 17.4111 16.082 17.4957L16.4355 17.1421ZM21.7432 22.4498L16.4355 17.1421L16.082 17.4957L21.3896 22.8034L21.7432 22.4498ZM22.4503 22.4498C22.255 22.6451 21.9385 22.6451 21.7432 22.4498L21.3896 22.8034C21.7802 23.1939 22.4133 23.1939 22.8039 22.8034L22.4503 22.4498ZM22.4503 21.7427C22.6456 21.938 22.6456 22.2546 22.4503 22.4498L22.8039 22.8034C23.1944 22.4128 23.1944 21.7797 22.8039 21.3892L22.4503 21.7427ZM17.1426 16.435L22.4503 21.7427L22.8039 21.3892L17.4962 16.0815L17.1426 16.435ZM17.0005 16.3353C17.0517 16.3591 17.0998 16.3922 17.1426 16.435L17.4962 16.0815C17.4116 15.9969 17.3151 15.9303 17.2119 15.8821L17.0005 16.3353ZM19.0577 10.1538C19.0577 12.3658 18.2514 14.3888 16.9164 15.946L17.296 16.2714C18.7058 14.6271 19.5577 12.4896 19.5577 10.1538H19.0577ZM10.1538 1.25C15.0713 1.25 19.0577 5.23639 19.0577 10.1538H19.5577C19.5577 4.96024 15.3474 0.75 10.1538 0.75V1.25Z" fill="#042A4B"/>
</svg>
