<svg width="8" height="8" viewBox="0 0 8 8" fill="none" xmlns="http://www.w3.org/2000/svg">
<path d="M7.97481 4.44288C7.96202 4.55572 7.83071 4.63971 7.7171 4.63971C7.47553 4.63441 7.24244 4.7285 7.07239 4.90006C6.90234 5.07162 6.81021 5.30546 6.81775 5.54688C6.82523 5.78826 6.93165 6.01596 7.11203 6.17663C7.1539 6.21458 7.17981 6.26704 7.18439 6.32336C7.18902 6.37967 7.17199 6.43565 7.13682 6.4799C6.94985 6.71625 6.73696 6.93095 6.50215 7.11992C6.45771 7.15542 6.40144 7.17255 6.34477 7.16797C6.2881 7.16334 6.23528 7.13728 6.19721 7.09514C6.07188 6.96321 5.91019 6.87146 5.73271 6.83145C5.55517 6.79143 5.36975 6.80494 5.19993 6.87035C5.03167 6.94228 4.88963 7.06428 4.79316 7.21971C4.69663 7.37519 4.65035 7.55651 4.66051 7.73917C4.66352 7.79593 4.64487 7.85174 4.60831 7.89527C4.57179 7.93881 4.52004 7.96682 4.4636 7.97363C4.16474 8.00795 3.86299 8.00879 3.56396 7.97603C3.5083 7.96984 3.45699 7.94294 3.42025 7.90069C3.38346 7.8585 3.36392 7.80397 3.36549 7.74799C3.37196 7.56694 3.32289 7.38818 3.22491 7.23577C3.12693 7.08335 2.98467 6.96448 2.81725 6.8951C2.64808 6.83226 2.4643 6.82004 2.28831 6.86C2.11235 6.89991 1.95183 6.99026 1.82638 7.1199C1.78848 7.16136 1.73633 7.18692 1.68039 7.19156C1.62439 7.19613 1.56878 7.17939 1.52463 7.14473C1.28523 6.95683 1.06827 6.74207 0.877957 6.50466C0.842672 6.46029 0.825421 6.4042 0.82972 6.34767C0.834019 6.29119 0.859532 6.23834 0.901126 6.19983C1.03802 6.07722 1.13332 5.91509 1.17391 5.73588C1.2145 5.55668 1.19831 5.36933 1.12763 5.19973C1.05153 5.03443 0.92832 4.89524 0.773391 4.79958C0.618519 4.70392 0.438807 4.65609 0.25685 4.66206C0.200351 4.66564 0.144688 4.64711 0.101707 4.61038C0.0586623 4.57361 0.0316412 4.52159 0.0263373 4.46528C-0.00877909 4.1633 -0.00877909 3.85831 0.0263373 3.55638C0.0367215 3.43957 0.172834 3.35955 0.287287 3.35955C0.463655 3.361 0.636336 3.30943 0.783061 3.21155C0.929787 3.11371 1.04367 2.97408 1.11006 2.81072C1.17789 2.64274 1.1928 2.45806 1.15293 2.28137C1.11301 2.10468 1.02017 1.9444 0.886738 1.82178C0.845089 1.78389 0.819352 1.7316 0.814717 1.67546C0.810139 1.61937 0.827 1.56356 0.861949 1.51936C1.04792 1.28268 1.26035 1.06791 1.49506 0.879336C1.53928 0.843674 1.59544 0.826206 1.6521 0.830559C1.70877 0.834856 1.76164 0.860584 1.8 0.902497C1.9255 1.03465 2.08735 1.12668 2.26512 1.16698C2.44289 1.20728 2.62863 1.19405 2.79885 1.12892C2.96763 1.05782 3.11015 0.936156 3.20691 0.78067C3.30367 0.62524 3.34984 0.443636 3.33912 0.260861C3.33605 0.204103 3.35469 0.148294 3.39126 0.10476C3.42783 0.0612288 3.47953 0.0332694 3.53597 0.0264044C3.68906 0.00904846 3.84297 0.000230312 3.99702 5.72205e-06C4.14384 -0.000272751 4.29057 0.00798702 4.43639 0.0248418C4.49239 0.0310364 4.54392 0.0581594 4.58072 0.100742C4.61751 0.143325 4.63688 0.19824 4.63493 0.254443C4.62812 0.435374 4.6768 0.614078 4.77456 0.76655C4.87226 0.919021 5.01428 1.03789 5.18156 1.10733C5.35061 1.16989 5.5343 1.18166 5.70993 1.14115C5.88557 1.10063 6.04552 1.0096 6.17002 0.879349C6.20793 0.837883 6.26007 0.812323 6.31602 0.807691C6.37202 0.803114 6.42762 0.819857 6.47178 0.854514C6.71079 1.04282 6.92773 1.25757 7.11845 1.49459C7.15412 1.53879 7.1716 1.59499 7.16724 1.65158C7.16294 1.70822 7.13721 1.76108 7.09528 1.79942C6.91417 1.95904 6.80659 2.18596 6.79765 2.42717C6.78878 2.66832 6.87933 2.90254 7.04816 3.07506C7.21704 3.24756 7.44934 3.34323 7.69076 3.3396H7.74039H7.74033C7.79711 3.33653 7.85294 3.35517 7.89649 3.39172C7.94004 3.42828 7.96807 3.47996 7.97488 3.53638C8.00838 3.83764 8.00838 4.14168 7.97488 4.44288L7.97481 4.44288ZM4.00581 2.65799C3.65196 2.65799 3.31258 2.79846 3.06235 3.0486C2.81211 3.29874 2.67159 3.63794 2.67159 3.99172C2.67159 4.34544 2.81211 4.68464 3.06235 4.93478C3.31258 5.18492 3.65196 5.32545 4.00581 5.32545C4.35966 5.32545 4.69899 5.18492 4.94922 4.93478C5.19946 4.68464 5.34004 4.34544 5.34004 3.99172C5.33959 3.63811 5.1989 3.29912 4.94878 3.0491C4.69867 2.79902 4.35955 2.65838 4.00581 2.65799Z" fill="#042A4B"/>
</svg>
