<svg width="27" height="29" viewBox="0 0 27 29" fill="none" xmlns="http://www.w3.org/2000/svg">
<path d="M26.5001 26.0257L21.3342 20.761C23.2605 18.56 24.4572 15.6451 24.4572 12.4626C24.4572 5.5918 18.9704 0 12.2286 0C5.48681 0 0 5.5918 0 12.4626C0 19.3334 5.48681 24.9252 12.2286 24.9252C14.6219 24.9252 16.8398 24.2113 18.7077 23.0216L24.0778 28.4944C24.3988 28.8216 24.8365 29 25.2744 29C25.7121 29 26.15 28.8216 26.471 28.4944C27.1714 27.8103 27.1714 26.7097 26.5002 26.0257L26.5001 26.0257ZM3.41461 12.4626C3.41461 7.52514 7.35471 3.48006 12.2285 3.48006C17.1023 3.48006 21.0133 7.52519 21.0133 12.4626C21.0133 17.4001 17.0732 21.4452 12.2285 21.4452C7.3839 21.4452 3.41461 17.4297 3.41461 12.4626Z" fill="#14ACE5"/>
</svg>
