<svg width="24" height="24" viewBox="0 0 24 24" fill="none" xmlns="http://www.w3.org/2000/svg">
<path fill-rule="evenodd" clip-rule="evenodd" d="M2.5 10.2305C2.5 6.0034 5.92674 2.57666 10.1538 2.57666C14.3809 2.57666 17.8077 6.0034 17.8077 10.2305C17.8077 14.4576 14.3809 17.8844 10.1538 17.8844C5.92674 17.8844 2.5 14.4576 2.5 10.2305ZM10.1538 1.07666C5.09832 1.07666 1 5.17498 1 10.2305C1 15.286 5.09832 19.3844 10.1538 19.3844C12.428 19.3844 14.5084 18.5551 16.1092 17.1824C16.1452 17.2596 16.195 17.3319 16.2587 17.3956L21.5664 22.7033C21.8593 22.9962 22.3342 22.9962 22.6271 22.7033C22.92 22.4104 22.92 21.9355 22.6271 21.6426L17.3194 16.3349C17.2557 16.2712 17.1834 16.2214 17.1062 16.1854C18.4786 14.5846 19.3077 12.5044 19.3077 10.2305C19.3077 5.17498 15.2094 1.07666 10.1538 1.07666Z" fill="white"/>
<path d="M16.1092 17.1824L16.3358 17.0768C16.3027 17.0059 16.2384 16.9546 16.162 16.9381C16.0856 16.9216 16.0058 16.9418 15.9465 16.9927L16.1092 17.1824ZM16.2587 17.3956L16.082 17.5723L16.2587 17.3956ZM21.5664 22.7033L21.7432 22.5265L21.5664 22.7033ZM22.6271 22.7033L22.4503 22.5265L22.6271 22.7033ZM22.6271 21.6426L22.4503 21.8194L22.6271 21.6426ZM17.3194 16.3349L17.4962 16.1581L17.3194 16.3349ZM17.1062 16.1854L16.9164 16.0227C16.8655 16.082 16.8453 16.1618 16.8619 16.2382C16.8784 16.3146 16.9297 16.3789 17.0005 16.4119L17.1062 16.1854ZM10.1538 2.32666C5.78867 2.32666 2.25 5.86533 2.25 10.2305H2.75C2.75 6.14147 6.06481 2.82666 10.1538 2.82666V2.32666ZM18.0577 10.2305C18.0577 5.86533 14.519 2.32666 10.1538 2.32666V2.82666C14.2429 2.82666 17.5577 6.14147 17.5577 10.2305H18.0577ZM10.1538 18.1344C14.519 18.1344 18.0577 14.5957 18.0577 10.2305H17.5577C17.5577 14.3195 14.2429 17.6344 10.1538 17.6344V18.1344ZM2.25 10.2305C2.25 14.5957 5.78867 18.1344 10.1538 18.1344V17.6344C6.06481 17.6344 2.75 14.3195 2.75 10.2305H2.25ZM1.25 10.2305C1.25 5.31305 5.23639 1.32666 10.1538 1.32666V0.82666C4.96024 0.82666 0.75 5.03691 0.75 10.2305H1.25ZM10.1538 19.1344C5.23639 19.1344 1.25 15.148 1.25 10.2305H0.75C0.75 15.4241 4.96024 19.6344 10.1538 19.6344V19.1344ZM15.9465 16.9927C14.3893 18.3279 12.366 19.1344 10.1538 19.1344V19.6344C12.4899 19.6344 14.6275 18.7823 16.272 17.3722L15.9465 16.9927ZM16.4355 17.2188C16.3927 17.176 16.3596 17.1279 16.3358 17.0768L15.8827 17.2881C15.9308 17.3913 15.9974 17.4877 16.082 17.5723L16.4355 17.2188ZM21.7432 22.5265L16.4355 17.2188L16.082 17.5723L21.3896 22.88L21.7432 22.5265ZM22.4503 22.5265C22.255 22.7217 21.9385 22.7217 21.7432 22.5265L21.3896 22.88C21.7802 23.2706 22.4133 23.2706 22.8039 22.88L22.4503 22.5265ZM22.4503 21.8194C22.6456 22.0146 22.6456 22.3312 22.4503 22.5265L22.8039 22.88C23.1944 22.4895 23.1944 21.8563 22.8039 21.4658L22.4503 21.8194ZM17.1426 16.5117L22.4503 21.8194L22.8039 21.4658L17.4962 16.1581L17.1426 16.5117ZM17.0005 16.4119C17.0517 16.4358 17.0998 16.4689 17.1426 16.5117L17.4962 16.1581C17.4116 16.0735 17.3151 16.0069 17.2119 15.9588L17.0005 16.4119ZM19.0577 10.2305C19.0577 12.4425 18.2514 14.4655 16.9164 16.0227L17.296 16.3481C18.7058 14.7037 19.5577 12.5663 19.5577 10.2305H19.0577ZM10.1538 1.32666C15.0713 1.32666 19.0577 5.31305 19.0577 10.2305H19.5577C19.5577 5.03691 15.3474 0.82666 10.1538 0.82666V1.32666Z" fill="white"/>
</svg>
