<svg width="8" height="9" viewBox="0 0 8 9" fill="none" xmlns="http://www.w3.org/2000/svg">
<path d="M7.97481 4.94288C7.96202 5.05572 7.83071 5.13971 7.7171 5.13971C7.47553 5.13441 7.24244 5.2285 7.07239 5.40006C6.90234 5.57162 6.81021 5.80546 6.81775 6.04688C6.82523 6.28826 6.93165 6.51596 7.11203 6.67663C7.1539 6.71458 7.17981 6.76704 7.18439 6.82336C7.18902 6.87967 7.17199 6.93565 7.13682 6.9799C6.94985 7.21625 6.73696 7.43095 6.50215 7.61992C6.45771 7.65542 6.40144 7.67255 6.34477 7.66797C6.2881 7.66334 6.23528 7.63728 6.19721 7.59514C6.07188 7.46321 5.91019 7.37146 5.73271 7.33145C5.55517 7.29143 5.36975 7.30494 5.19993 7.37035C5.03167 7.44228 4.88963 7.56428 4.79316 7.71971C4.69663 7.87519 4.65035 8.05651 4.66051 8.23917C4.66352 8.29593 4.64487 8.35174 4.60831 8.39527C4.57179 8.43881 4.52004 8.46682 4.4636 8.47363C4.16474 8.50795 3.86299 8.50879 3.56396 8.47603C3.5083 8.46984 3.45699 8.44294 3.42025 8.40069C3.38346 8.3585 3.36392 8.30397 3.36549 8.24799C3.37196 8.06694 3.32289 7.88818 3.22491 7.73577C3.12693 7.58335 2.98467 7.46448 2.81725 7.3951C2.64808 7.33226 2.4643 7.32004 2.28831 7.36C2.11235 7.39991 1.95183 7.49026 1.82638 7.6199C1.78848 7.66136 1.73633 7.68692 1.68039 7.69156C1.62439 7.69613 1.56878 7.67939 1.52463 7.64473C1.28523 7.45683 1.06827 7.24207 0.877957 7.00466C0.842672 6.96029 0.825421 6.9042 0.82972 6.84767C0.834019 6.79119 0.859532 6.73834 0.901126 6.69983C1.03802 6.57722 1.13332 6.41509 1.17391 6.23588C1.2145 6.05668 1.19831 5.86933 1.12763 5.69973C1.05153 5.53443 0.92832 5.39524 0.773391 5.29958C0.618519 5.20392 0.438807 5.15609 0.25685 5.16206C0.200351 5.16564 0.144688 5.14711 0.101707 5.11038C0.0586623 5.07361 0.0316412 5.02159 0.0263373 4.96528C-0.00877909 4.6633 -0.00877909 4.35831 0.0263373 4.05638C0.0367215 3.93957 0.172834 3.85955 0.287287 3.85955C0.463655 3.861 0.636336 3.80943 0.783061 3.71155C0.929787 3.61371 1.04367 3.47408 1.11006 3.31072C1.17789 3.14274 1.1928 2.95806 1.15293 2.78137C1.11301 2.60468 1.02017 2.4444 0.886738 2.32178C0.845089 2.28389 0.819352 2.2316 0.814717 2.17546C0.810139 2.11937 0.827 2.06356 0.861949 2.01936C1.04792 1.78268 1.26035 1.56791 1.49506 1.37934C1.53928 1.34367 1.59544 1.32621 1.6521 1.33056C1.70877 1.33486 1.76164 1.36058 1.8 1.4025C1.9255 1.53465 2.08735 1.62668 2.26512 1.66698C2.44289 1.70728 2.62863 1.69405 2.79885 1.62892C2.96763 1.55782 3.11015 1.43616 3.20691 1.28067C3.30367 1.12524 3.34984 0.943636 3.33912 0.760861C3.33605 0.704103 3.35469 0.648294 3.39126 0.60476C3.42783 0.561229 3.47953 0.533269 3.53597 0.526404C3.68906 0.509048 3.84297 0.50023 3.99702 0.500006C4.14384 0.499727 4.29057 0.507987 4.43639 0.524842C4.49239 0.531036 4.54392 0.558159 4.58072 0.600742C4.61751 0.643325 4.63688 0.69824 4.63493 0.754443C4.62812 0.935374 4.6768 1.11408 4.77456 1.26655C4.87226 1.41902 5.01428 1.53789 5.18156 1.60733C5.35061 1.66989 5.5343 1.68166 5.70993 1.64115C5.88557 1.60063 6.04552 1.5096 6.17002 1.37935C6.20793 1.33788 6.26007 1.31232 6.31602 1.30769C6.37202 1.30311 6.42762 1.31986 6.47178 1.35451C6.71079 1.54282 6.92773 1.75757 7.11845 1.99459C7.15412 2.03879 7.1716 2.09499 7.16724 2.15158C7.16294 2.20822 7.13721 2.26108 7.09528 2.29942C6.91417 2.45904 6.80659 2.68596 6.79765 2.92717C6.78878 3.16832 6.87933 3.40254 7.04816 3.57506C7.21704 3.74756 7.44934 3.84323 7.69076 3.8396H7.74039H7.74033C7.79711 3.83653 7.85294 3.85517 7.89649 3.89172C7.94004 3.92828 7.96807 3.97996 7.97488 4.03638C8.00838 4.33764 8.00838 4.64168 7.97488 4.94288L7.97481 4.94288ZM4.00581 3.15799C3.65196 3.15799 3.31258 3.29846 3.06235 3.5486C2.81211 3.79874 2.67159 4.13794 2.67159 4.49172C2.67159 4.84544 2.81211 5.18464 3.06235 5.43478C3.31258 5.68492 3.65196 5.82545 4.00581 5.82545C4.35966 5.82545 4.69899 5.68492 4.94922 5.43478C5.19946 5.18464 5.34004 4.84544 5.34004 4.49172C5.33959 4.13811 5.1989 3.79912 4.94878 3.5491C4.69867 3.29902 4.35955 3.15838 4.00581 3.15799Z" fill="white"/>
</svg>
